<?xml version="1.0" standalone="no"?>
<!DOCTYPE svg PUBLIC "-//W3C//DTD SVG 20010904//EN"
 "http://www.w3.org/TR/2001/REC-SVG-20010904/DTD/svg10.dtd">
<svg version="1.0" xmlns="http://www.w3.org/2000/svg"
 width="1280.000000pt" height="1280.000000pt" viewBox="0 0 1280.000000 1280.000000"
 preserveAspectRatio="xMidYMid meet">
<metadata>
Created by potrace 1.14, written by Peter Selinger 2001-2017
</metadata>
<g transform="translate(0.000000,1280.000000) scale(0.100000,-0.100000)"
fill="#000000" stroke="none">
<path d="M3112 10007 c-51 -63 -83 -101 -125 -148 -18 -20 -49 -56 -69 -80
-21 -24 -49 -57 -63 -74 -15 -16 -43 -50 -63 -75 -20 -25 -42 -49 -48 -55 -7
-5 -40 -44 -75 -85 -97 -114 -96 -113 -119 -140 -37 -42 -113 -131 -154 -179
-21 -25 -43 -47 -47 -49 -5 -2 -9 -8 -9 -12 0 -5 -12 -22 -27 -38 -16 -16 -46
-51 -68 -77 -22 -26 -49 -57 -60 -69 -11 -12 -38 -44 -60 -70 -22 -26 -53 -62
-68 -79 -16 -18 -43 -49 -60 -71 -18 -21 -39 -46 -48 -55 -8 -9 -37 -43 -65
-75 -27 -33 -60 -72 -74 -87 -24 -27 -67 -76 -111 -129 -29 -35 -106 -125
-154 -180 -22 -25 -62 -72 -90 -105 -27 -32 -61 -72 -75 -87 -14 -15 -30 -34
-36 -41 -56 -67 -199 -233 -203 -237 -4 -3 -31 -34 -60 -70 -30 -36 -61 -72
-68 -80 -8 -8 -24 -27 -36 -41 -12 -14 -35 -41 -52 -60 -16 -19 -52 -61 -80
-94 -27 -33 -57 -67 -65 -75 -22 -23 -109 -126 -134 -158 -12 -15 -30 -36 -41
-47 -11 -11 -43 -47 -70 -80 -27 -33 -62 -73 -76 -90 -29 -33 -85 -98 -164
-190 -27 -32 -54 -63 -60 -69 -5 -7 -35 -41 -64 -76 -62 -73 -64 -76 -126
-144 -49 -55 -49 -55 12 -123 21 -23 56 -63 78 -89 36 -43 81 -95 239 -278 28
-32 56 -64 61 -70 6 -6 35 -40 65 -76 30 -36 57 -67 60 -70 3 -3 18 -21 34
-40 16 -19 52 -62 81 -95 30 -33 63 -71 74 -85 39 -47 96 -113 106 -124 6 -6
37 -42 70 -81 33 -38 65 -75 70 -81 6 -6 26 -31 47 -55 20 -24 44 -54 55 -65
10 -12 41 -48 68 -80 28 -32 57 -65 65 -74 8 -9 49 -56 90 -105 41 -49 82 -97
90 -106 19 -20 102 -116 129 -149 19 -22 38 -45 106 -123 11 -13 41 -48 67
-78 25 -30 56 -65 68 -79 12 -14 39 -45 60 -70 21 -25 47 -55 57 -66 10 -12
41 -48 68 -80 28 -32 68 -79 90 -104 22 -25 59 -68 82 -95 23 -28 53 -63 68
-80 14 -16 40 -47 58 -69 18 -21 43 -51 57 -66 14 -15 34 -38 45 -51 62 -73
210 -246 219 -255 6 -7 30 -34 52 -60 100 -118 187 -219 193 -224 3 -3 18 -21
32 -40 15 -19 45 -54 68 -78 22 -24 41 -45 41 -48 0 -3 10 -15 23 -28 12 -12
37 -40 55 -62 19 -21 52 -60 74 -87 l41 -47 60 97 c34 54 65 100 69 101 4 2 8
8 8 13 0 11 122 203 132 207 5 2 8 9 8 16 0 6 7 21 15 31 28 37 65 96 65 104
0 4 9 16 20 26 11 10 20 22 20 28 0 5 10 23 23 40 12 17 27 39 32 48 23 40 79
128 115 184 34 53 99 155 133 210 6 11 20 32 30 47 18 27 18 28 -5 52 -13 13
-37 41 -55 62 -17 22 -41 50 -53 64 -11 14 -31 36 -42 50 -12 14 -44 52 -73
85 -28 33 -60 71 -71 84 -10 13 -24 28 -29 35 -6 6 -35 40 -65 76 -30 36 -63
72 -72 81 -10 9 -18 19 -18 23 0 3 -8 14 -17 24 -19 20 -75 84 -174 202 -35
41 -66 77 -69 80 -3 3 -49 57 -102 120 -53 63 -109 129 -123 145 -15 17 -39
46 -54 65 -14 19 -31 40 -38 45 -12 11 -128 147 -183 214 -19 24 -42 51 -51
60 -8 9 -37 43 -65 76 -27 33 -52 62 -55 65 -3 3 -32 37 -64 75 -33 39 -64 75
-70 81 -5 7 -23 28 -40 48 -16 20 -51 60 -77 89 -27 28 -48 55 -48 58 0 3 -17
24 -37 46 -21 22 -54 59 -73 83 -19 23 -53 62 -75 87 -22 25 -46 55 -54 67 -8
12 -18 23 -21 26 -4 3 -37 40 -74 83 l-66 79 38 46 c20 26 42 52 48 57 9 8
120 139 359 422 15 18 29 34 139 163 54 63 117 137 140 164 22 27 50 60 61 72
11 13 38 44 60 71 22 26 48 55 58 65 9 10 17 20 17 23 0 2 15 20 33 39 17 19
42 47 54 63 12 16 33 41 45 54 13 14 43 49 68 79 25 29 57 67 71 84 15 17 56
65 90 106 35 41 68 80 74 86 5 6 24 28 40 49 17 20 39 47 51 59 11 11 43 48
70 81 27 33 51 62 54 65 4 3 44 50 90 105 47 55 89 105 95 111 5 6 28 33 50
59 22 27 49 59 60 71 11 12 34 40 52 61 17 21 44 52 60 70 15 18 42 49 58 69
17 20 37 44 45 53 54 58 54 52 10 120 -22 34 -40 66 -40 71 0 6 -4 10 -10 10
-5 0 -10 6 -10 14 0 8 -3 16 -7 18 -11 4 -113 167 -113 179 0 5 -4 9 -8 9 -5
0 -15 12 -23 28 -8 15 -31 52 -51 82 -21 30 -38 60 -38 67 0 6 -4 13 -9 15 -5
2 -17 17 -27 35 -18 29 -197 314 -271 428 -18 28 -37 55 -43 62 -5 7 -10 15
-10 18 0 8 -44 75 -50 74 -3 0 -24 -23 -48 -52z"/>
<path d="M9625 10040 c-3 -11 -10 -20 -15 -20 -4 0 -10 -8 -14 -17 -3 -10 -25
-48 -48 -84 -24 -36 -81 -126 -128 -200 -46 -74 -88 -135 -92 -137 -4 -2 -8
-8 -8 -13 0 -8 -70 -121 -138 -223 -29 -42 -47 -73 -58 -96 -4 -8 -10 -17 -14
-20 -3 -3 -24 -34 -46 -70 -21 -36 -43 -69 -47 -75 -4 -5 -28 -41 -52 -80 -24
-38 -49 -75 -54 -82 -16 -18 -13 -50 7 -70 10 -10 40 -45 68 -78 27 -33 54
-65 59 -71 29 -33 107 -125 169 -198 22 -27 57 -68 76 -90 19 -22 40 -46 45
-53 6 -7 21 -26 35 -41 26 -30 53 -62 215 -252 140 -165 185 -218 230 -270 22
-25 60 -70 85 -100 25 -30 74 -88 110 -130 36 -42 81 -95 100 -119 19 -23 46
-54 60 -69 14 -15 44 -50 67 -77 23 -28 50 -60 60 -72 10 -12 27 -32 37 -45
11 -12 48 -57 84 -98 35 -41 81 -95 103 -120 21 -25 48 -56 59 -70 12 -14 38
-45 58 -69 21 -24 42 -49 47 -55 6 -6 52 -60 104 -121 51 -60 114 -134 140
-164 25 -30 52 -64 60 -75 8 -12 18 -24 23 -27 8 -5 -21 -50 -52 -81 -8 -8
-31 -34 -50 -58 -19 -24 -40 -48 -45 -54 -6 -6 -35 -40 -65 -76 -30 -35 -59
-70 -65 -76 -5 -6 -32 -38 -60 -70 -27 -32 -66 -77 -85 -99 -20 -22 -71 -83
-115 -135 -44 -52 -82 -97 -85 -100 -3 -3 -27 -32 -55 -65 -27 -33 -54 -65
-60 -71 -5 -6 -28 -32 -50 -59 -22 -26 -44 -53 -50 -59 -5 -6 -25 -29 -44 -51
-18 -22 -55 -65 -81 -95 -42 -48 -142 -165 -192 -225 -64 -76 -272 -321 -277
-325 -4 -3 -26 -30 -51 -60 -25 -30 -49 -60 -55 -66 -5 -6 -30 -35 -55 -64
-25 -30 -63 -75 -85 -100 -22 -26 -71 -84 -110 -129 -38 -46 -77 -91 -85 -101
-79 -92 -110 -128 -137 -159 -18 -20 -35 -44 -39 -54 -3 -9 -9 -15 -12 -13 -4
2 -19 -13 -34 -33 l-27 -37 89 -140 c49 -76 98 -152 108 -169 33 -51 87 -136
156 -243 36 -57 66 -107 66 -111 0 -4 9 -16 20 -26 11 -10 20 -22 20 -26 0 -9
125 -207 145 -229 8 -9 15 -20 15 -24 0 -3 23 -40 50 -82 28 -41 50 -79 50
-83 0 -4 9 -16 19 -25 18 -17 20 -16 26 3 3 12 10 21 14 21 5 0 29 26 54 57
25 32 64 78 87 103 23 25 53 61 68 80 15 19 41 49 57 66 17 17 44 49 62 70 17
22 44 53 60 71 15 18 46 54 68 80 22 26 47 54 55 63 8 9 32 36 52 60 20 25 49
59 63 75 15 17 43 50 63 74 21 24 42 49 47 55 6 6 39 45 75 86 36 41 70 80 75
86 6 6 28 33 50 59 22 27 45 53 50 59 6 6 55 63 109 126 54 63 107 126 119
140 12 14 51 59 86 100 35 41 72 84 82 95 17 19 129 149 224 260 23 28 89 104
146 170 56 66 110 128 118 139 9 10 27 31 41 46 14 15 39 45 57 66 17 22 46
55 63 74 17 19 48 55 68 79 77 91 149 175 172 200 8 9 40 46 70 81 30 36 63
72 72 81 10 9 18 21 18 27 0 6 3 12 8 14 4 2 50 52 102 113 52 60 100 115 105
121 6 6 30 35 55 64 25 29 55 63 68 76 12 13 22 25 22 28 0 3 12 18 26 33 23
24 55 61 124 143 91 106 119 139 142 163 14 15 24 27 20 27 -3 0 2 6 12 13 17
12 16 15 -11 48 -15 19 -32 40 -38 47 -5 6 -23 27 -40 46 -16 18 -50 57 -75
87 -25 29 -55 64 -68 78 -13 14 -35 40 -50 59 -15 19 -34 42 -43 51 -8 9 -40
45 -70 80 -30 36 -61 72 -69 81 -8 9 -34 38 -57 65 -23 28 -51 61 -63 75 -12
14 -38 45 -58 69 -21 24 -48 56 -62 71 -14 15 -44 50 -66 76 -23 27 -52 60
-64 74 -12 14 -39 45 -59 70 -20 25 -41 50 -47 55 -5 6 -35 39 -65 75 -30 35
-67 78 -82 94 -15 16 -38 43 -50 59 -12 16 -29 36 -37 45 -16 17 -103 118
-151 176 -13 16 -35 41 -49 56 -14 15 -40 45 -58 68 -19 23 -45 54 -59 69 -47
53 -69 78 -118 138 -27 33 -59 69 -70 80 -11 11 -31 34 -43 50 -21 27 -76 91
-140 163 -12 14 -40 46 -61 71 -53 62 -124 144 -182 211 -11 14 -38 45 -58 69
-20 25 -45 54 -56 66 -11 11 -33 37 -49 55 -16 19 -43 51 -60 70 -17 20 -51
60 -76 90 -25 29 -50 58 -55 64 -10 10 -174 201 -215 249 -8 10 -24 29 -35 41
-11 12 -38 44 -60 70 -61 73 -74 88 -108 126 -18 19 -54 61 -81 93 -75 90 -88
105 -133 155 -24 26 -43 50 -43 55 0 15 -19 6 -25 -13z"/>
<path d="M6748 9977 c-5 -10 -27 -75 -48 -145 -21 -70 -45 -147 -53 -172 -7
-25 -15 -49 -16 -55 -9 -41 -46 -152 -54 -162 -5 -7 -7 -13 -4 -13 3 0 -1 -19
-8 -42 -7 -24 -39 -126 -70 -228 -56 -183 -94 -305 -99 -325 -2 -5 -6 -23 -11
-40 -4 -16 -10 -34 -14 -40 -3 -5 -6 -14 -7 -20 -5 -26 -76 -262 -83 -275 -5
-9 -12 -31 -17 -50 -10 -43 -9 -41 -17 -60 -8 -22 -57 -187 -62 -207 -2 -10
-9 -31 -15 -48 -6 -16 -13 -37 -15 -45 -9 -39 -48 -167 -55 -180 -4 -9 -11
-31 -15 -50 -4 -19 -10 -39 -13 -45 -4 -5 -7 -14 -8 -20 -6 -31 -95 -323 -104
-338 -6 -10 -8 -22 -5 -27 3 -5 1 -11 -4 -14 -5 -3 -12 -23 -17 -43 -11 -54
-49 -179 -67 -223 -6 -14 -11 -29 -12 -35 0 -5 -7 -30 -15 -55 -7 -25 -14 -47
-15 -50 -1 -3 -8 -25 -15 -50 -7 -25 -14 -48 -16 -52 -1 -5 -3 -10 -4 -13 -1
-3 -3 -8 -4 -12 -6 -24 -38 -130 -43 -143 -4 -8 -7 -19 -8 -25 -1 -5 -18 -64
-39 -130 -34 -108 -75 -240 -153 -495 -14 -47 -32 -107 -40 -135 -8 -27 -17
-57 -20 -65 -4 -8 -7 -20 -9 -27 -1 -7 -21 -70 -43 -141 -23 -71 -41 -136 -41
-144 0 -8 -3 -18 -7 -22 -5 -4 -8 -11 -9 -14 0 -4 -7 -27 -14 -52 -7 -25 -14
-47 -15 -50 -7 -26 -47 -158 -52 -170 -3 -8 -7 -21 -9 -27 -1 -7 -19 -66 -40
-130 -21 -65 -39 -122 -40 -128 -2 -9 -42 -143 -146 -480 -22 -71 -52 -173
-68 -225 -16 -52 -40 -133 -55 -180 -15 -47 -29 -94 -32 -105 -2 -11 -8 -29
-13 -40 -4 -11 -42 -135 -85 -275 -42 -140 -88 -291 -102 -335 -14 -44 -27
-88 -28 -98 -2 -9 -7 -22 -10 -27 -3 -5 -8 -18 -10 -28 -2 -11 -13 -50 -25
-88 -12 -38 -23 -76 -25 -84 -2 -8 -16 -54 -32 -102 l-29 -88 75 -1 c42 0 354
-1 694 -2 l618 -2 37 115 c20 63 37 120 37 125 0 6 3 15 7 20 3 6 13 35 21 65
8 30 34 116 57 190 23 74 44 143 45 153 2 9 7 22 10 27 3 5 8 18 10 27 5 25
65 224 72 243 8 19 7 16 22 70 6 25 15 52 18 60 3 8 7 20 9 27 1 6 14 49 29
95 16 46 29 90 30 98 1 8 5 22 8 30 4 8 22 67 41 130 37 124 68 223 121 395
19 61 51 164 71 230 20 66 49 163 65 215 17 52 36 118 44 145 8 28 26 86 40
129 14 44 27 89 29 100 2 12 10 35 17 51 6 17 13 35 15 42 9 46 58 200 66 211
6 6 8 12 5 12 -4 0 0 18 8 40 8 22 14 41 13 43 0 1 10 34 22 72 12 39 23 77
25 85 2 8 8 27 14 43 6 15 13 38 15 50 3 12 14 48 25 80 11 31 18 57 16 57 -2
0 3 17 11 37 9 20 18 46 20 57 2 10 10 40 18 65 30 94 88 283 91 295 1 6 5 18
8 26 8 20 69 222 71 235 1 6 7 24 13 40 14 37 43 137 44 150 0 6 6 24 13 40 7
17 13 32 14 35 0 3 3 12 6 20 14 45 27 90 31 108 2 11 9 31 16 44 7 13 11 23
10 23 -4 0 15 71 47 172 35 109 64 204 66 218 1 5 4 15 8 20 3 6 9 26 13 45 4
19 10 40 13 45 4 6 7 15 8 21 2 10 41 142 52 174 3 8 6 20 8 25 4 16 39 129
82 270 22 72 74 240 115 375 41 135 82 265 91 290 9 25 16 50 16 57 0 6 5 24
12 40 13 33 12 28 22 73 5 19 11 40 14 45 4 6 7 15 8 21 2 12 49 166 71 234 8
25 17 54 19 64 2 11 16 56 31 100 15 45 27 83 26 86 -1 3 11 43 27 90 15 47
26 87 23 90 -2 2 -313 5 -690 5 -653 0 -685 -1 -695 -18z"/>
</g>
</svg>
